<mxfile host="app.diagrams.net" modified="2023-10-05T04:54:06.197Z" agent="Mozilla/5.0 (Windows NT 10.0; Win64; x64) AppleWebKit/537.36 (KHTML, like Gecko) Chrome/116.0.5845.2271 YaBrowser/23.9.0.2271 Yowser/2.5 Safari/537.36" etag="oSWvIgYkHV7kIwPZZsNX" version="22.0.2" type="device">
  <diagram name="Страница — 1" id="tPoT4hHvwxfY3_mr3B1R">
    <mxGraphModel dx="1002" dy="575" grid="0" gridSize="10" guides="1" tooltips="1" connect="1" arrows="1" fold="1" page="1" pageScale="1" pageWidth="827" pageHeight="1169" math="0" shadow="0">
      <root>
        <mxCell id="0" />
        <mxCell id="1" parent="0" />
        <mxCell id="6rCbfs4mVRWqjugRPmAf-7" value="&lt;p style=&quot;text-align:justify;line-height:115%&quot;&gt;&lt;b&gt;&amp;nbsp; &amp;nbsp;Администраторы, ответственные за&lt;br&gt;обновление хендбуков&lt;/b&gt;&lt;/p&gt;" style="shape=umlActor;verticalLabelPosition=bottom;verticalAlign=top;html=1;outlineConnect=0;" vertex="1" parent="1">
          <mxGeometry x="120" y="210" width="47" height="96" as="geometry" />
        </mxCell>
        <mxCell id="6rCbfs4mVRWqjugRPmAf-11" value="&lt;b&gt;&lt;font style=&quot;font-size: 14px;&quot;&gt;Обновление информации в хендбуках&lt;/font&gt;&lt;/b&gt;" style="ellipse;whiteSpace=wrap;html=1;" vertex="1" parent="1">
          <mxGeometry x="280" y="151" width="147" height="80" as="geometry" />
        </mxCell>
        <mxCell id="6rCbfs4mVRWqjugRPmAf-13" value="" style="endArrow=none;html=1;rounded=0;exitX=1;exitY=0.3333333333333333;exitDx=0;exitDy=0;exitPerimeter=0;entryX=0;entryY=0.5;entryDx=0;entryDy=0;" edge="1" parent="1" source="6rCbfs4mVRWqjugRPmAf-7" target="6rCbfs4mVRWqjugRPmAf-11">
          <mxGeometry width="50" height="50" relative="1" as="geometry">
            <mxPoint x="435" y="302" as="sourcePoint" />
            <mxPoint x="485" y="252" as="targetPoint" />
          </mxGeometry>
        </mxCell>
        <mxCell id="6rCbfs4mVRWqjugRPmAf-14" value="&lt;b&gt;&lt;font style=&quot;font-size: 14px;&quot;&gt;Утверждение и публикация обновлений&lt;/font&gt;&lt;/b&gt;" style="ellipse;whiteSpace=wrap;html=1;" vertex="1" parent="1">
          <mxGeometry x="305" y="298" width="156" height="84" as="geometry" />
        </mxCell>
        <mxCell id="6rCbfs4mVRWqjugRPmAf-16" value="" style="endArrow=none;html=1;rounded=0;exitX=1;exitY=0.3333333333333333;exitDx=0;exitDy=0;exitPerimeter=0;entryX=0;entryY=0.5;entryDx=0;entryDy=0;" edge="1" parent="1" source="6rCbfs4mVRWqjugRPmAf-7" target="6rCbfs4mVRWqjugRPmAf-14">
          <mxGeometry width="50" height="50" relative="1" as="geometry">
            <mxPoint x="146" y="248" as="sourcePoint" />
            <mxPoint x="290" y="201" as="targetPoint" />
          </mxGeometry>
        </mxCell>
        <mxCell id="6rCbfs4mVRWqjugRPmAf-19" value="&lt;div style=&quot;font-size: 14px;&quot;&gt;&lt;span style=&quot;background-color: initial;&quot;&gt;&lt;font style=&quot;font-size: 14px;&quot;&gt;&lt;b&gt;Запуск&amp;nbsp;&lt;/b&gt;&lt;/font&gt;&lt;/span&gt;&lt;b style=&quot;background-color: initial;&quot;&gt;процедуры&amp;nbsp;&lt;/b&gt;&lt;/div&gt;&lt;div style=&quot;font-size: 14px;&quot;&gt;&lt;span style=&quot;background-color: initial;&quot;&gt;&lt;font style=&quot;font-size: 14px;&quot;&gt;&lt;b&gt;обновления&amp;nbsp;&lt;/b&gt;&lt;/font&gt;&lt;/span&gt;&lt;/div&gt;&lt;div style=&quot;font-size: 14px;&quot;&gt;&lt;span style=&quot;background-color: initial;&quot;&gt;&lt;font style=&quot;font-size: 14px;&quot;&gt;&lt;b&gt;хендбука&lt;/b&gt;&lt;/font&gt;&lt;/span&gt;&lt;/div&gt;" style="ellipse;whiteSpace=wrap;html=1;align=center;" vertex="1" parent="1">
          <mxGeometry x="529" y="71" width="206" height="87" as="geometry" />
        </mxCell>
        <mxCell id="6rCbfs4mVRWqjugRPmAf-22" value="&lt;font style=&quot;font-size: 14px;&quot;&gt;&lt;b&gt;Отправка запрос на утверждение&lt;/b&gt;&lt;/font&gt;" style="ellipse;whiteSpace=wrap;html=1;" vertex="1" parent="1">
          <mxGeometry x="563" y="219" width="206" height="87" as="geometry" />
        </mxCell>
        <mxCell id="6rCbfs4mVRWqjugRPmAf-23" value="" style="endArrow=none;dashed=1;html=1;dashPattern=1 3;strokeWidth=2;rounded=0;entryX=0;entryY=0.5;entryDx=0;entryDy=0;exitX=0.984;exitY=0.615;exitDx=0;exitDy=0;exitPerimeter=0;" edge="1" parent="1" source="6rCbfs4mVRWqjugRPmAf-11" target="6rCbfs4mVRWqjugRPmAf-22">
          <mxGeometry width="50" height="50" relative="1" as="geometry">
            <mxPoint x="435" y="316" as="sourcePoint" />
            <mxPoint x="485" y="266" as="targetPoint" />
          </mxGeometry>
        </mxCell>
        <mxCell id="6rCbfs4mVRWqjugRPmAf-25" value="&lt;span style=&quot;font-size: 14px;&quot;&gt;&lt;b&gt;включить&lt;/b&gt;&lt;/span&gt;" style="text;html=1;strokeColor=none;fillColor=none;align=center;verticalAlign=middle;whiteSpace=wrap;rounded=0;" vertex="1" parent="1">
          <mxGeometry x="427" y="110" width="60" height="30" as="geometry" />
        </mxCell>
        <mxCell id="6rCbfs4mVRWqjugRPmAf-26" value="&lt;b&gt;&lt;font style=&quot;font-size: 14px;&quot;&gt;расширить&lt;/font&gt;&lt;/b&gt;" style="text;html=1;strokeColor=none;fillColor=none;align=center;verticalAlign=middle;whiteSpace=wrap;rounded=0;" vertex="1" parent="1">
          <mxGeometry x="489" y="201" width="60" height="30" as="geometry" />
        </mxCell>
        <mxCell id="6rCbfs4mVRWqjugRPmAf-30" value="" style="endArrow=none;html=1;rounded=0;entryX=0;entryY=0.5;entryDx=0;entryDy=0;exitX=1;exitY=0.5;exitDx=0;exitDy=0;" edge="1" parent="1" source="6rCbfs4mVRWqjugRPmAf-11" target="6rCbfs4mVRWqjugRPmAf-19">
          <mxGeometry width="50" height="50" relative="1" as="geometry">
            <mxPoint x="459" y="205" as="sourcePoint" />
            <mxPoint x="509" y="155" as="targetPoint" />
          </mxGeometry>
        </mxCell>
      </root>
    </mxGraphModel>
  </diagram>
</mxfile>
